solid ascii
 facet normal 0.583176 0.352447 0.731907
  outer loop
   vertex 0.0604102 0.0396348 0.0370783
   vertex 0.0420018 0.0855251 0.0296476
   vertex 0.0242038 0.030495 0.0703284
  endloop
 endfacet
 facet normal 0.583176 0.352447 0.731907
  outer loop
   vertex 0.0420018 0.0855251 0.0296476
   vertex 0.0235935 0.131415 0.0222169
   vertex 0.00579547 0.0763852 0.0628977
  endloop
 endfacet
 facet normal 0.583176 0.352447 0.731907
  outer loop
   vertex 0.00579547 0.0763852 0.0628977
   vertex -0.0120025 0.0213552 0.103578
   vertex 0.0242038 0.030495 0.0703284
  endloop
 endfacet
 facet normal 0.583176 0.352447 0.731907
  outer loop
   vertex 0.0420018 0.0855251 0.0296476
   vertex 0.00579547 0.0763852 0.0628977
   vertex 0.0242038 0.030495 0.0703284
  endloop
 endfacet
 facet normal 0.583176 0.352447 0.731907
  outer loop
   vertex 0.0235935 0.131415 0.0222169
   vertex 0.00518512 0.177306 0.0147863
   vertex -0.0126129 0.122275 0.055467
  endloop
 endfacet
 facet normal 0.583176 0.352447 0.731907
  outer loop
   vertex 0.00518512 0.177306 0.0147863
   vertex -0.0132232 0.223196 0.00735558
   vertex -0.0310212 0.168166 0.0480364
  endloop
 endfacet
 facet normal 0.583176 0.352447 0.731907
  outer loop
   vertex -0.0310212 0.168166 0.0480364
   vertex -0.0488192 0.113136 0.0887171
   vertex -0.0126129 0.122275 0.055467
  endloop
 endfacet
 facet normal 0.583176 0.352447 0.731907
  outer loop
   vertex 0.00518512 0.177306 0.0147863
   vertex -0.0310212 0.168166 0.0480364
   vertex -0.0126129 0.122275 0.055467
  endloop
 endfacet
 facet normal 0.583176 0.352447 0.731907
  outer loop
   vertex -0.0488192 0.113136 0.0887171
   vertex -0.0666172 0.0581056 0.129398
   vertex -0.0304109 0.0672454 0.0961478
  endloop
 endfacet
 facet normal 0.583176 0.352447 0.731907
  outer loop
   vertex -0.0666172 0.0581056 0.129398
   vertex -0.0844152 0.00307554 0.170079
   vertex -0.0482089 0.0122154 0.136829
  endloop
 endfacet
 facet normal 0.583176 0.352447 0.731906
  outer loop
   vertex -0.0482089 0.0122154 0.136829
   vertex -0.0120025 0.0213552 0.103578
   vertex -0.0304109 0.0672454 0.0961478
  endloop
 endfacet
 facet normal 0.583176 0.352447 0.731907
  outer loop
   vertex -0.0666172 0.0581056 0.129398
   vertex -0.0482089 0.0122154 0.136829
   vertex -0.0304109 0.0672454 0.0961478
  endloop
 endfacet
 facet normal 0.583176 0.352447 0.731907
  outer loop
   vertex 0.0235935 0.131415 0.0222169
   vertex -0.0126129 0.122275 0.055467
   vertex 0.00579547 0.0763852 0.0628977
  endloop
 endfacet
 facet normal 0.583176 0.352447 0.731907
  outer loop
   vertex -0.0126129 0.122275 0.055467
   vertex -0.0488192 0.113136 0.0887171
   vertex -0.0304109 0.0672454 0.0961478
  endloop
 endfacet
 facet normal 0.583176 0.352447 0.731907
  outer loop
   vertex -0.0304109 0.0672454 0.0961478
   vertex -0.0120025 0.0213552 0.103578
   vertex 0.00579547 0.0763852 0.0628977
  endloop
 endfacet
 facet normal 0.583176 0.352447 0.731907
  outer loop
   vertex -0.0126129 0.122275 0.055467
   vertex -0.0304109 0.0672454 0.0961478
   vertex 0.00579547 0.0763852 0.0628977
  endloop
 endfacet
 facet normal 0.583176 0.352447 0.731907
  outer loop
   vertex -0.0132232 0.223196 0.00735558
   vertex -0.0316316 0.269086 -7.50981e-05
   vertex -0.0494296 0.214056 0.0406057
  endloop
 endfacet
 facet normal 0.583176 0.352447 0.731907
  outer loop
   vertex -0.0316316 0.269086 -7.50981e-05
   vertex -0.0500399 0.314976 -0.00750577
   vertex -0.0678379 0.259946 0.033175
  endloop
 endfacet
 facet normal 0.583176 0.352447 0.731907
  outer loop
   vertex -0.0678379 0.259946 0.033175
   vertex -0.0856359 0.204916 0.0738558
   vertex -0.0494296 0.214056 0.0406057
  endloop
 endfacet
 facet normal 0.583176 0.352447 0.731907
  outer loop
   vertex -0.0316316 0.269086 -7.50981e-05
   vertex -0.0678379 0.259946 0.033175
   vertex -0.0494296 0.214056 0.0406057
  endloop
 endfacet
 facet normal 0.583176 0.352447 0.731907
  outer loop
   vertex -0.0500399 0.314976 -0.00750577
   vertex -0.0684483 0.360866 -0.0149365
   vertex -0.0862463 0.305836 0.0257443
  endloop
 endfacet
 facet normal 0.583176 0.352447 0.731907
  outer loop
   vertex -0.0684483 0.360866 -0.0149365
   vertex -0.0868566 0.406757 -0.0223671
   vertex -0.104655 0.351727 0.0183137
  endloop
 endfacet
 facet normal 0.583176 0.352447 0.731907
  outer loop
   vertex -0.104655 0.351727 0.0183137
   vertex -0.122453 0.296697 0.0589944
   vertex -0.0862463 0.305836 0.0257443
  endloop
 endfacet
 facet normal 0.583176 0.352447 0.731907
  outer loop
   vertex -0.0684483 0.360866 -0.0149365
   vertex -0.104655 0.351727 0.0183137
   vertex -0.0862463 0.305836 0.0257443
  endloop
 endfacet
 facet normal 0.583176 0.352447 0.731907
  outer loop
   vertex -0.122453 0.296697 0.0589944
   vertex -0.140251 0.241666 0.0996752
   vertex -0.104044 0.250806 0.0664251
  endloop
 endfacet
 facet normal 0.583176 0.352447 0.731907
  outer loop
   vertex -0.140251 0.241666 0.0996752
   vertex -0.158049 0.186636 0.140356
   vertex -0.121842 0.195776 0.107106
  endloop
 endfacet
 facet normal 0.583176 0.352447 0.731907
  outer loop
   vertex -0.121842 0.195776 0.107106
   vertex -0.0856359 0.204916 0.0738558
   vertex -0.104044 0.250806 0.0664251
  endloop
 endfacet
 facet normal 0.583176 0.352447 0.731907
  outer loop
   vertex -0.140251 0.241666 0.0996752
   vertex -0.121842 0.195776 0.107106
   vertex -0.104044 0.250806 0.0664251
  endloop
 endfacet
 facet normal 0.583176 0.352447 0.731906
  outer loop
   vertex -0.0500399 0.314976 -0.00750577
   vertex -0.0862463 0.305836 0.0257443
   vertex -0.0678379 0.259946 0.033175
  endloop
 endfacet
 facet normal 0.583176 0.352447 0.731907
  outer loop
   vertex -0.0862463 0.305836 0.0257443
   vertex -0.122453 0.296697 0.0589944
   vertex -0.104044 0.250806 0.0664251
  endloop
 endfacet
 facet normal 0.583176 0.352447 0.731907
  outer loop
   vertex -0.104044 0.250806 0.0664251
   vertex -0.0856359 0.204916 0.0738558
   vertex -0.0678379 0.259946 0.033175
  endloop
 endfacet
 facet normal 0.583176 0.352447 0.731907
  outer loop
   vertex -0.0862463 0.305836 0.0257443
   vertex -0.104044 0.250806 0.0664251
   vertex -0.0678379 0.259946 0.033175
  endloop
 endfacet
 facet normal 0.583175 0.352447 0.731907
  outer loop
   vertex -0.158049 0.186636 0.140356
   vertex -0.175847 0.131606 0.181037
   vertex -0.13964 0.140746 0.147787
  endloop
 endfacet
 facet normal 0.583176 0.352447 0.731907
  outer loop
   vertex -0.175847 0.131606 0.181037
   vertex -0.193645 0.0765763 0.221718
   vertex -0.157438 0.0857162 0.188467
  endloop
 endfacet
 facet normal 0.583176 0.352447 0.731907
  outer loop
   vertex -0.157438 0.0857162 0.188467
   vertex -0.121232 0.094856 0.155217
   vertex -0.13964 0.140746 0.147787
  endloop
 endfacet
 facet normal 0.583176 0.352447 0.731907
  outer loop
   vertex -0.175847 0.131606 0.181037
   vertex -0.157438 0.0857162 0.188467
   vertex -0.13964 0.140746 0.147787
  endloop
 endfacet
 facet normal 0.583176 0.352447 0.731907
  outer loop
   vertex -0.193645 0.0765763 0.221718
   vertex -0.211443 0.0215463 0.262398
   vertex -0.175236 0.0306861 0.229148
  endloop
 endfacet
 facet normal 0.583176 0.352447 0.731907
  outer loop
   vertex -0.211443 0.0215463 0.262398
   vertex -0.229241 -0.0334838 0.303079
   vertex -0.193034 -0.0243439 0.269829
  endloop
 endfacet
 facet normal 0.583176 0.352447 0.731906
  outer loop
   vertex -0.193034 -0.0243439 0.269829
   vertex -0.156828 -0.0152041 0.236579
   vertex -0.175236 0.0306861 0.229148
  endloop
 endfacet
 facet normal 0.583176 0.352447 0.731907
  outer loop
   vertex -0.211443 0.0215463 0.262398
   vertex -0.193034 -0.0243439 0.269829
   vertex -0.175236 0.0306861 0.229148
  endloop
 endfacet
 facet normal 0.583176 0.352447 0.731907
  outer loop
   vertex -0.156828 -0.0152041 0.236579
   vertex -0.120622 -0.00606428 0.203329
   vertex -0.13903 0.0398259 0.195898
  endloop
 endfacet
 facet normal 0.583176 0.352447 0.731907
  outer loop
   vertex -0.120622 -0.00606428 0.203329
   vertex -0.0844152 0.00307554 0.170079
   vertex -0.102824 0.0489658 0.162648
  endloop
 endfacet
 facet normal 0.583176 0.352447 0.731907
  outer loop
   vertex -0.102824 0.0489658 0.162648
   vertex -0.121232 0.094856 0.155217
   vertex -0.13903 0.0398259 0.195898
  endloop
 endfacet
 facet normal 0.583176 0.352447 0.731907
  outer loop
   vertex -0.120622 -0.00606428 0.203329
   vertex -0.102824 0.0489658 0.162648
   vertex -0.13903 0.0398259 0.195898
  endloop
 endfacet
 facet normal 0.583176 0.352447 0.731907
  outer loop
   vertex -0.193645 0.0765763 0.221718
   vertex -0.175236 0.0306861 0.229148
   vertex -0.157438 0.0857162 0.188467
  endloop
 endfacet
 facet normal 0.583175 0.352447 0.731907
  outer loop
   vertex -0.175236 0.0306861 0.229148
   vertex -0.156828 -0.0152041 0.236579
   vertex -0.13903 0.0398259 0.195898
  endloop
 endfacet
 facet normal 0.583176 0.352447 0.731907
  outer loop
   vertex -0.13903 0.0398259 0.195898
   vertex -0.121232 0.094856 0.155217
   vertex -0.157438 0.0857162 0.188467
  endloop
 endfacet
 facet normal 0.583176 0.352447 0.731907
  outer loop
   vertex -0.175236 0.0306861 0.229148
   vertex -0.13903 0.0398259 0.195898
   vertex -0.157438 0.0857162 0.188467
  endloop
 endfacet
 facet normal 0.583176 0.352447 0.731907
  outer loop
   vertex -0.0132232 0.223196 0.00735558
   vertex -0.0494296 0.214056 0.0406057
   vertex -0.0310212 0.168166 0.0480364
  endloop
 endfacet
 facet normal 0.583176 0.352447 0.731907
  outer loop
   vertex -0.0494296 0.214056 0.0406057
   vertex -0.0856359 0.204916 0.0738558
   vertex -0.0672276 0.159026 0.0812865
  endloop
 endfacet
 facet normal 0.583176 0.352447 0.731907
  outer loop
   vertex -0.0672276 0.159026 0.0812865
   vertex -0.0488192 0.113136 0.0887171
   vertex -0.0310212 0.168166 0.0480364
  endloop
 endfacet
 facet normal 0.583176 0.352447 0.731907
  outer loop
   vertex -0.0494296 0.214056 0.0406057
   vertex -0.0672276 0.159026 0.0812865
   vertex -0.0310212 0.168166 0.0480364
  endloop
 endfacet
 facet normal 0.583176 0.352447 0.731907
  outer loop
   vertex -0.0856359 0.204916 0.0738558
   vertex -0.121842 0.195776 0.107106
   vertex -0.103434 0.149886 0.114537
  endloop
 endfacet
 facet normal 0.583176 0.352447 0.731907
  outer loop
   vertex -0.121842 0.195776 0.107106
   vertex -0.158049 0.186636 0.140356
   vertex -0.13964 0.140746 0.147787
  endloop
 endfacet
 facet normal 0.583176 0.352447 0.731906
  outer loop
   vertex -0.13964 0.140746 0.147787
   vertex -0.121232 0.094856 0.155217
   vertex -0.103434 0.149886 0.114537
  endloop
 endfacet
 facet normal 0.583176 0.352447 0.731906
  outer loop
   vertex -0.121842 0.195776 0.107106
   vertex -0.13964 0.140746 0.147787
   vertex -0.103434 0.149886 0.114537
  endloop
 endfacet
 facet normal 0.583176 0.352447 0.731907
  outer loop
   vertex -0.121232 0.094856 0.155217
   vertex -0.102824 0.0489658 0.162648
   vertex -0.0850256 0.103996 0.121967
  endloop
 endfacet
 facet normal 0.583176 0.352447 0.731907
  outer loop
   vertex -0.102824 0.0489658 0.162648
   vertex -0.0844152 0.00307554 0.170079
   vertex -0.0666172 0.0581056 0.129398
  endloop
 endfacet
 facet normal 0.583176 0.352447 0.731907
  outer loop
   vertex -0.0666172 0.0581056 0.129398
   vertex -0.0488192 0.113136 0.0887171
   vertex -0.0850256 0.103996 0.121967
  endloop
 endfacet
 facet normal 0.583176 0.352447 0.731907
  outer loop
   vertex -0.102824 0.0489658 0.162648
   vertex -0.0666172 0.0581056 0.129398
   vertex -0.0850256 0.103996 0.121967
  endloop
 endfacet
 facet normal 0.583176 0.352447 0.731907
  outer loop
   vertex -0.0856359 0.204916 0.0738558
   vertex -0.103434 0.149886 0.114537
   vertex -0.0672276 0.159026 0.0812865
  endloop
 endfacet
 facet normal 0.583176 0.352447 0.731907
  outer loop
   vertex -0.103434 0.149886 0.114537
   vertex -0.121232 0.094856 0.155217
   vertex -0.0850256 0.103996 0.121967
  endloop
 endfacet
 facet normal 0.583176 0.352447 0.731907
  outer loop
   vertex -0.0850256 0.103996 0.121967
   vertex -0.0488192 0.113136 0.0887171
   vertex -0.0672276 0.159026 0.0812865
  endloop
 endfacet
 facet normal 0.583176 0.352447 0.731907
  outer loop
   vertex -0.103434 0.149886 0.114537
   vertex -0.0850256 0.103996 0.121967
   vertex -0.0672276 0.159026 0.0812865
  endloop
 endfacet
 facet normal 0.583174 0.352451 0.731906
  outer loop
   vertex 0.0604102 0.0396348 0.0370783
   vertex 0.0242038 0.030495 0.0703284
   vertex 0.0788187 -0.00625543 0.0445091
  endloop
 endfacet
 facet normal 0.583174 0.352451 0.731906
  outer loop
   vertex 0.0242038 0.030495 0.0703284
   vertex -0.0120025 0.0213552 0.103578
   vertex 0.0426123 -0.0153953 0.0777592
  endloop
 endfacet
 facet normal 0.583174 0.352451 0.731906
  outer loop
   vertex 0.0426123 -0.0153953 0.0777592
   vertex 0.0972272 -0.0521457 0.05194
   vertex 0.0788187 -0.00625543 0.0445091
  endloop
 endfacet
 facet normal 0.583174 0.352451 0.731906
  outer loop
   vertex 0.0242038 0.030495 0.0703284
   vertex 0.0426123 -0.0153953 0.0777592
   vertex 0.0788187 -0.00625543 0.0445091
  endloop
 endfacet
 facet normal 0.583174 0.352451 0.731906
  outer loop
   vertex -0.0120025 0.0213552 0.103578
   vertex -0.0482089 0.0122154 0.136829
   vertex 0.006406 -0.0245351 0.111009
  endloop
 endfacet
 facet normal 0.583174 0.352451 0.731906
  outer loop
   vertex -0.0482089 0.0122154 0.136829
   vertex -0.0844152 0.00307554 0.170079
   vertex -0.0298004 -0.0336749 0.144259
  endloop
 endfacet
 facet normal 0.583174 0.352451 0.731906
  outer loop
   vertex -0.0298004 -0.0336749 0.144259
   vertex 0.0248145 -0.0704254 0.11844
   vertex 0.006406 -0.0245351 0.111009
  endloop
 endfacet
 facet normal 0.583174 0.352451 0.731906
  outer loop
   vertex -0.0482089 0.0122154 0.136829
   vertex -0.0298004 -0.0336749 0.144259
   vertex 0.006406 -0.0245351 0.111009
  endloop
 endfacet
 facet normal 0.583174 0.352451 0.731906
  outer loop
   vertex 0.0248145 -0.0704254 0.11844
   vertex 0.0794294 -0.107176 0.0926209
   vertex 0.0610209 -0.0612855 0.0851901
  endloop
 endfacet
 facet normal 0.583174 0.352451 0.731906
  outer loop
   vertex 0.0794294 -0.107176 0.0926209
   vertex 0.134044 -0.143926 0.0668017
   vertex 0.115636 -0.098036 0.0593708
  endloop
 endfacet
 facet normal 0.583174 0.352451 0.731906
  outer loop
   vertex 0.115636 -0.098036 0.0593708
   vertex 0.0972272 -0.0521457 0.05194
   vertex 0.0610209 -0.0612855 0.0851901
  endloop
 endfacet
 facet normal 0.583174 0.352451 0.731906
  outer loop
   vertex 0.0794294 -0.107176 0.0926209
   vertex 0.115636 -0.098036 0.0593708
   vertex 0.0610209 -0.0612855 0.0851901
  endloop
 endfacet
 facet normal 0.583174 0.352451 0.731906
  outer loop
   vertex -0.0120025 0.0213552 0.103578
   vertex 0.006406 -0.0245351 0.111009
   vertex 0.0426123 -0.0153953 0.0777592
  endloop
 endfacet
 facet normal 0.583174 0.352451 0.731906
  outer loop
   vertex 0.006406 -0.0245351 0.111009
   vertex 0.0248145 -0.0704254 0.11844
   vertex 0.0610209 -0.0612855 0.0851901
  endloop
 endfacet
 facet normal 0.583174 0.352451 0.731906
  outer loop
   vertex 0.0610209 -0.0612855 0.0851901
   vertex 0.0972272 -0.0521457 0.05194
   vertex 0.0426123 -0.0153953 0.0777592
  endloop
 endfacet
 facet normal 0.583174 0.352451 0.731906
  outer loop
   vertex 0.006406 -0.0245351 0.111009
   vertex 0.0610209 -0.0612855 0.0851901
   vertex 0.0426123 -0.0153953 0.0777592
  endloop
 endfacet
 facet normal 0.583174 0.352451 0.731906
  outer loop
   vertex -0.0844152 0.00307554 0.170079
   vertex -0.120622 -0.00606428 0.203329
   vertex -0.0660067 -0.0428147 0.17751
  endloop
 endfacet
 facet normal 0.583174 0.352451 0.731906
  outer loop
   vertex -0.120622 -0.00606428 0.203329
   vertex -0.156828 -0.0152041 0.236579
   vertex -0.102213 -0.0519546 0.21076
  endloop
 endfacet
 facet normal 0.583174 0.352451 0.731906
  outer loop
   vertex -0.102213 -0.0519546 0.21076
   vertex -0.0475982 -0.088705 0.18494
   vertex -0.0660067 -0.0428147 0.17751
  endloop
 endfacet
 facet normal 0.583174 0.352451 0.731906
  outer loop
   vertex -0.120622 -0.00606428 0.203329
   vertex -0.102213 -0.0519546 0.21076
   vertex -0.0660067 -0.0428147 0.17751
  endloop
 endfacet
 facet normal 0.583174 0.352451 0.731906
  outer loop
   vertex -0.156828 -0.0152041 0.236579
   vertex -0.193034 -0.0243439 0.269829
   vertex -0.138419 -0.0610944 0.24401
  endloop
 endfacet
 facet normal 0.583174 0.35245 0.731906
  outer loop
   vertex -0.193034 -0.0243439 0.269829
   vertex -0.229241 -0.0334838 0.303079
   vertex -0.174626 -0.0702342 0.27726
  endloop
 endfacet
 facet normal 0.583174 0.352451 0.731906
  outer loop
   vertex -0.174626 -0.0702342 0.27726
   vertex -0.120011 -0.106985 0.251441
   vertex -0.138419 -0.0610944 0.24401
  endloop
 endfacet
 facet normal 0.583174 0.35245 0.731906
  outer loop
   vertex -0.193034 -0.0243439 0.269829
   vertex -0.174626 -0.0702342 0.27726
   vertex -0.138419 -0.0610944 0.24401
  endloop
 endfacet
 facet normal 0.583174 0.352451 0.731906
  outer loop
   vertex -0.120011 -0.106985 0.251441
   vertex -0.065396 -0.143735 0.225621
   vertex -0.0838045 -0.0978448 0.21819
  endloop
 endfacet
 facet normal 0.583174 0.352451 0.731906
  outer loop
   vertex -0.065396 -0.143735 0.225621
   vertex -0.0107811 -0.180486 0.199802
   vertex -0.0291896 -0.134595 0.192371
  endloop
 endfacet
 facet normal 0.583174 0.352451 0.731906
  outer loop
   vertex -0.0291896 -0.134595 0.192371
   vertex -0.0475982 -0.088705 0.18494
   vertex -0.0838045 -0.0978448 0.21819
  endloop
 endfacet
 facet normal 0.583174 0.352451 0.731906
  outer loop
   vertex -0.065396 -0.143735 0.225621
   vertex -0.0291896 -0.134595 0.192371
   vertex -0.0838045 -0.0978448 0.21819
  endloop
 endfacet
 facet normal 0.583174 0.352451 0.731906
  outer loop
   vertex -0.156828 -0.0152041 0.236579
   vertex -0.138419 -0.0610944 0.24401
   vertex -0.102213 -0.0519546 0.21076
  endloop
 endfacet
 facet normal 0.583174 0.352451 0.731906
  outer loop
   vertex -0.138419 -0.0610944 0.24401
   vertex -0.120011 -0.106985 0.251441
   vertex -0.0838045 -0.0978448 0.21819
  endloop
 endfacet
 facet normal 0.583174 0.352451 0.731906
  outer loop
   vertex -0.0838045 -0.0978448 0.21819
   vertex -0.0475982 -0.088705 0.18494
   vertex -0.102213 -0.0519546 0.21076
  endloop
 endfacet
 facet normal 0.583174 0.352451 0.731906
  outer loop
   vertex -0.138419 -0.0610944 0.24401
   vertex -0.0838045 -0.0978448 0.21819
   vertex -0.102213 -0.0519546 0.21076
  endloop
 endfacet
 facet normal 0.583174 0.352451 0.731906
  outer loop
   vertex -0.0107811 -0.180486 0.199802
   vertex 0.0438338 -0.217236 0.173983
   vertex 0.0254252 -0.171346 0.166552
  endloop
 endfacet
 facet normal 0.583174 0.352451 0.731906
  outer loop
   vertex 0.0438338 -0.217236 0.173983
   vertex 0.0984486 -0.253986 0.148164
   vertex 0.0800401 -0.208096 0.140733
  endloop
 endfacet
 facet normal 0.583174 0.352451 0.731906
  outer loop
   vertex 0.0800401 -0.208096 0.140733
   vertex 0.0616316 -0.162206 0.133302
   vertex 0.0254252 -0.171346 0.166552
  endloop
 endfacet
 facet normal 0.583174 0.352451 0.731906
  outer loop
   vertex 0.0438338 -0.217236 0.173983
   vertex 0.0800401 -0.208096 0.140733
   vertex 0.0254252 -0.171346 0.166552
  endloop
 endfacet
 facet normal 0.583174 0.352451 0.731906
  outer loop
   vertex 0.0984486 -0.253986 0.148164
   vertex 0.153064 -0.290737 0.122344
   vertex 0.134655 -0.244847 0.114913
  endloop
 endfacet
 facet normal 0.583174 0.352451 0.731906
  outer loop
   vertex 0.153064 -0.290737 0.122344
   vertex 0.207678 -0.327487 0.0965251
   vertex 0.18927 -0.281597 0.0890942
  endloop
 endfacet
 facet normal 0.583174 0.352451 0.731906
  outer loop
   vertex 0.18927 -0.281597 0.0890942
   vertex 0.170861 -0.235707 0.0816634
   vertex 0.134655 -0.244847 0.114913
  endloop
 endfacet
 facet normal 0.583174 0.35245 0.731906
  outer loop
   vertex 0.153064 -0.290737 0.122344
   vertex 0.18927 -0.281597 0.0890942
   vertex 0.134655 -0.244847 0.114913
  endloop
 endfacet
 facet normal 0.583174 0.352451 0.731906
  outer loop
   vertex 0.170861 -0.235707 0.0816634
   vertex 0.152453 -0.189817 0.0742325
   vertex 0.116246 -0.198956 0.107483
  endloop
 endfacet
 facet normal 0.583174 0.352451 0.731906
  outer loop
   vertex 0.152453 -0.189817 0.0742325
   vertex 0.134044 -0.143926 0.0668017
   vertex 0.0978379 -0.153066 0.100052
  endloop
 endfacet
 facet normal 0.583174 0.352451 0.731906
  outer loop
   vertex 0.0978379 -0.153066 0.100052
   vertex 0.0616316 -0.162206 0.133302
   vertex 0.116246 -0.198956 0.107483
  endloop
 endfacet
 facet normal 0.583174 0.352451 0.731906
  outer loop
   vertex 0.152453 -0.189817 0.0742325
   vertex 0.0978379 -0.153066 0.100052
   vertex 0.116246 -0.198956 0.107483
  endloop
 endfacet
 facet normal 0.583174 0.352451 0.731906
  outer loop
   vertex 0.0984486 -0.253986 0.148164
   vertex 0.134655 -0.244847 0.114913
   vertex 0.0800401 -0.208096 0.140733
  endloop
 endfacet
 facet normal 0.583174 0.352451 0.731906
  outer loop
   vertex 0.134655 -0.244847 0.114913
   vertex 0.170861 -0.235707 0.0816634
   vertex 0.116246 -0.198956 0.107483
  endloop
 endfacet
 facet normal 0.583174 0.352451 0.731906
  outer loop
   vertex 0.116246 -0.198956 0.107483
   vertex 0.0616316 -0.162206 0.133302
   vertex 0.0800401 -0.208096 0.140733
  endloop
 endfacet
 facet normal 0.583174 0.352451 0.731906
  outer loop
   vertex 0.134655 -0.244847 0.114913
   vertex 0.116246 -0.198956 0.107483
   vertex 0.0800401 -0.208096 0.140733
  endloop
 endfacet
 facet normal 0.583174 0.352451 0.731906
  outer loop
   vertex -0.0844152 0.00307554 0.170079
   vertex -0.0660067 -0.0428147 0.17751
   vertex -0.0298004 -0.0336749 0.144259
  endloop
 endfacet
 facet normal 0.583174 0.352451 0.731906
  outer loop
   vertex -0.0660067 -0.0428147 0.17751
   vertex -0.0475982 -0.088705 0.18494
   vertex -0.0113918 -0.0795652 0.15169
  endloop
 endfacet
 facet normal 0.583174 0.352451 0.731906
  outer loop
   vertex -0.0113918 -0.0795652 0.15169
   vertex 0.0248145 -0.0704254 0.11844
   vertex -0.0298004 -0.0336749 0.144259
  endloop
 endfacet
 facet normal 0.583174 0.352451 0.731906
  outer loop
   vertex -0.0660067 -0.0428147 0.17751
   vertex -0.0113918 -0.0795652 0.15169
   vertex -0.0298004 -0.0336749 0.144259
  endloop
 endfacet
 facet normal 0.583174 0.352451 0.731906
  outer loop
   vertex -0.0475982 -0.088705 0.18494
   vertex -0.0291896 -0.134595 0.192371
   vertex 0.0070167 -0.125455 0.159121
  endloop
 endfacet
 facet normal 0.583174 0.352451 0.731906
  outer loop
   vertex -0.0291896 -0.134595 0.192371
   vertex -0.0107811 -0.180486 0.199802
   vertex 0.0254252 -0.171346 0.166552
  endloop
 endfacet
 facet normal 0.583174 0.352451 0.731906
  outer loop
   vertex 0.0254252 -0.171346 0.166552
   vertex 0.0616316 -0.162206 0.133302
   vertex 0.0070167 -0.125455 0.159121
  endloop
 endfacet
 facet normal 0.583174 0.352451 0.731906
  outer loop
   vertex -0.0291896 -0.134595 0.192371
   vertex 0.0254252 -0.171346 0.166552
   vertex 0.0070167 -0.125455 0.159121
  endloop
 endfacet
 facet normal 0.583174 0.352451 0.731906
  outer loop
   vertex 0.0616316 -0.162206 0.133302
   vertex 0.0978379 -0.153066 0.100052
   vertex 0.043223 -0.116316 0.125871
  endloop
 endfacet
 facet normal 0.583174 0.352451 0.731906
  outer loop
   vertex 0.0978379 -0.153066 0.100052
   vertex 0.134044 -0.143926 0.0668017
   vertex 0.0794294 -0.107176 0.0926209
  endloop
 endfacet
 facet normal 0.583174 0.352451 0.731906
  outer loop
   vertex 0.0794294 -0.107176 0.0926209
   vertex 0.0248145 -0.0704254 0.11844
   vertex 0.043223 -0.116316 0.125871
  endloop
 endfacet
 facet normal 0.583174 0.352451 0.731906
  outer loop
   vertex 0.0978379 -0.153066 0.100052
   vertex 0.0794294 -0.107176 0.0926209
   vertex 0.043223 -0.116316 0.125871
  endloop
 endfacet
 facet normal 0.583174 0.352451 0.731906
  outer loop
   vertex -0.0475982 -0.088705 0.18494
   vertex 0.0070167 -0.125455 0.159121
   vertex -0.0113918 -0.0795652 0.15169
  endloop
 endfacet
 facet normal 0.583174 0.352451 0.731906
  outer loop
   vertex 0.0070167 -0.125455 0.159121
   vertex 0.0616316 -0.162206 0.133302
   vertex 0.043223 -0.116316 0.125871
  endloop
 endfacet
 facet normal 0.583174 0.352451 0.731906
  outer loop
   vertex 0.043223 -0.116316 0.125871
   vertex 0.0248145 -0.0704254 0.11844
   vertex -0.0113918 -0.0795652 0.15169
  endloop
 endfacet
 facet normal 0.583174 0.352451 0.731906
  outer loop
   vertex 0.0070167 -0.125455 0.159121
   vertex 0.043223 -0.116316 0.125871
   vertex -0.0113918 -0.0795652 0.15169
  endloop
 endfacet
 facet normal 0.583175 0.352451 0.731905
  outer loop
   vertex 0.0604102 0.0396348 0.0370783
   vertex 0.0788187 -0.00625543 0.0445091
   vertex 0.0966164 0.0487746 0.00382821
  endloop
 endfacet
 facet normal 0.583175 0.352451 0.731905
  outer loop
   vertex 0.0788187 -0.00625543 0.0445091
   vertex 0.0972272 -0.0521457 0.05194
   vertex 0.115025 0.00288434 0.0112591
  endloop
 endfacet
 facet normal 0.583175 0.352451 0.731905
  outer loop
   vertex 0.115025 0.00288434 0.0112591
   vertex 0.132823 0.0579144 -0.0294219
   vertex 0.0966164 0.0487746 0.00382821
  endloop
 endfacet
 facet normal 0.583175 0.352451 0.731905
  outer loop
   vertex 0.0788187 -0.00625543 0.0445091
   vertex 0.115025 0.00288434 0.0112591
   vertex 0.0966164 0.0487746 0.00382821
  endloop
 endfacet
 facet normal 0.583175 0.352451 0.731905
  outer loop
   vertex 0.0972272 -0.0521457 0.05194
   vertex 0.115636 -0.098036 0.0593708
   vertex 0.133433 -0.0430059 0.0186899
  endloop
 endfacet
 facet normal 0.583175 0.352451 0.731905
  outer loop
   vertex 0.115636 -0.098036 0.0593708
   vertex 0.134044 -0.143926 0.0668017
   vertex 0.151842 -0.0888962 0.0261208
  endloop
 endfacet
 facet normal 0.583175 0.352451 0.731905
  outer loop
   vertex 0.151842 -0.0888962 0.0261208
   vertex 0.16964 -0.0338662 -0.0145602
   vertex 0.133433 -0.0430059 0.0186899
  endloop
 endfacet
 facet normal 0.583175 0.352451 0.731905
  outer loop
   vertex 0.115636 -0.098036 0.0593708
   vertex 0.151842 -0.0888962 0.0261208
   vertex 0.133433 -0.0430059 0.0186899
  endloop
 endfacet
 facet normal 0.583175 0.352451 0.731905
  outer loop
   vertex 0.16964 -0.0338662 -0.0145602
   vertex 0.187438 0.0211639 -0.0552411
   vertex 0.151231 0.0120241 -0.021991
  endloop
 endfacet
 facet normal 0.583175 0.352451 0.731905
  outer loop
   vertex 0.187438 0.0211639 -0.0552411
   vertex 0.205235 0.0761939 -0.095922
   vertex 0.169029 0.0670542 -0.0626719
  endloop
 endfacet
 facet normal 0.583175 0.352451 0.731905
  outer loop
   vertex 0.169029 0.0670542 -0.0626719
   vertex 0.132823 0.0579144 -0.0294219
   vertex 0.151231 0.0120241 -0.021991
  endloop
 endfacet
 facet normal 0.583175 0.352451 0.731905
  outer loop
   vertex 0.187438 0.0211639 -0.0552411
   vertex 0.169029 0.0670542 -0.0626719
   vertex 0.151231 0.0120241 -0.021991
  endloop
 endfacet
 facet normal 0.583175 0.352451 0.731905
  outer loop
   vertex 0.0972272 -0.0521457 0.05194
   vertex 0.133433 -0.0430059 0.0186899
   vertex 0.115025 0.00288434 0.0112591
  endloop
 endfacet
 facet normal 0.583175 0.352451 0.731905
  outer loop
   vertex 0.133433 -0.0430059 0.0186899
   vertex 0.16964 -0.0338662 -0.0145602
   vertex 0.151231 0.0120241 -0.021991
  endloop
 endfacet
 facet normal 0.583175 0.352451 0.731905
  outer loop
   vertex 0.151231 0.0120241 -0.021991
   vertex 0.132823 0.0579144 -0.0294219
   vertex 0.115025 0.00288434 0.0112591
  endloop
 endfacet
 facet normal 0.583175 0.352451 0.731905
  outer loop
   vertex 0.133433 -0.0430059 0.0186899
   vertex 0.151231 0.0120241 -0.021991
   vertex 0.115025 0.00288434 0.0112591
  endloop
 endfacet
 facet normal 0.583175 0.352451 0.731905
  outer loop
   vertex 0.134044 -0.143926 0.0668017
   vertex 0.152453 -0.189817 0.0742325
   vertex 0.170251 -0.134786 0.0335516
  endloop
 endfacet
 facet normal 0.583175 0.352451 0.731905
  outer loop
   vertex 0.152453 -0.189817 0.0742325
   vertex 0.170861 -0.235707 0.0816634
   vertex 0.188659 -0.180677 0.0409825
  endloop
 endfacet
 facet normal 0.583175 0.352451 0.731905
  outer loop
   vertex 0.188659 -0.180677 0.0409825
   vertex 0.206457 -0.125647 0.000301532
   vertex 0.170251 -0.134786 0.0335516
  endloop
 endfacet
 facet normal 0.583175 0.352451 0.731905
  outer loop
   vertex 0.152453 -0.189817 0.0742325
   vertex 0.188659 -0.180677 0.0409825
   vertex 0.170251 -0.134786 0.0335516
  endloop
 endfacet
 facet normal 0.583175 0.352451 0.731905
  outer loop
   vertex 0.170861 -0.235707 0.0816634
   vertex 0.18927 -0.281597 0.0890942
   vertex 0.207068 -0.226567 0.0484133
  endloop
 endfacet
 facet normal 0.583175 0.352451 0.731905
  outer loop
   vertex 0.18927 -0.281597 0.0890942
   vertex 0.207678 -0.327487 0.0965251
   vertex 0.225476 -0.272457 0.0558442
  endloop
 endfacet
 facet normal 0.583175 0.352451 0.731905
  outer loop
   vertex 0.225476 -0.272457 0.0558442
   vertex 0.243274 -0.217427 0.0151632
   vertex 0.207068 -0.226567 0.0484133
  endloop
 endfacet
 facet normal 0.583175 0.352451 0.731905
  outer loop
   vertex 0.18927 -0.281597 0.0890942
   vertex 0.225476 -0.272457 0.0558442
   vertex 0.207068 -0.226567 0.0484133
  endloop
 endfacet
 facet normal 0.583175 0.352451 0.731905
  outer loop
   vertex 0.243274 -0.217427 0.0151632
   vertex 0.261072 -0.162397 -0.0255177
   vertex 0.224865 -0.171537 0.00773238
  endloop
 endfacet
 facet normal 0.583175 0.352451 0.731905
  outer loop
   vertex 0.261072 -0.162397 -0.0255177
   vertex 0.278869 -0.107367 -0.0661986
   vertex 0.242663 -0.116507 -0.0329485
  endloop
 endfacet
 facet normal 0.583175 0.352451 0.731905
  outer loop
   vertex 0.242663 -0.116507 -0.0329485
   vertex 0.206457 -0.125647 0.000301532
   vertex 0.224865 -0.171537 0.00773238
  endloop
 endfacet
 facet normal 0.583175 0.352451 0.731905
  outer loop
   vertex 0.261072 -0.162397 -0.0255177
   vertex 0.242663 -0.116507 -0.0329485
   vertex 0.224865 -0.171537 0.00773238
  endloop
 endfacet
 facet normal 0.583175 0.352451 0.731905
  outer loop
   vertex 0.170861 -0.235707 0.0816634
   vertex 0.207068 -0.226567 0.0484133
   vertex 0.188659 -0.180677 0.0409825
  endloop
 endfacet
 facet normal 0.583175 0.352451 0.731905
  outer loop
   vertex 0.207068 -0.226567 0.0484133
   vertex 0.243274 -0.217427 0.0151632
   vertex 0.224865 -0.171537 0.00773238
  endloop
 endfacet
 facet normal 0.583175 0.352451 0.731905
  outer loop
   vertex 0.224865 -0.171537 0.00773238
   vertex 0.206457 -0.125647 0.000301532
   vertex 0.188659 -0.180677 0.0409825
  endloop
 endfacet
 facet normal 0.583175 0.352451 0.731905
  outer loop
   vertex 0.207068 -0.226567 0.0484133
   vertex 0.224865 -0.171537 0.00773238
   vertex 0.188659 -0.180677 0.0409825
  endloop
 endfacet
 facet normal 0.583175 0.352451 0.731905
  outer loop
   vertex 0.278869 -0.107367 -0.0661986
   vertex 0.296667 -0.0523371 -0.10688
   vertex 0.260461 -0.0614769 -0.0736295
  endloop
 endfacet
 facet normal 0.583175 0.352451 0.731905
  outer loop
   vertex 0.296667 -0.0523371 -0.10688
   vertex 0.314465 0.00269294 -0.14756
   vertex 0.278259 -0.00644684 -0.11431
  endloop
 endfacet
 facet normal 0.583175 0.352451 0.731905
  outer loop
   vertex 0.278259 -0.00644684 -0.11431
   vertex 0.242052 -0.0155866 -0.0810603
   vertex 0.260461 -0.0614769 -0.0736295
  endloop
 endfacet
 facet normal 0.583175 0.352451 0.731905
  outer loop
   vertex 0.296667 -0.0523371 -0.10688
   vertex 0.278259 -0.00644684 -0.11431
   vertex 0.260461 -0.0614769 -0.0736295
  endloop
 endfacet
 facet normal 0.583175 0.352451 0.731905
  outer loop
   vertex 0.314465 0.00269294 -0.14756
   vertex 0.332263 0.057723 -0.188241
   vertex 0.296056 0.0485832 -0.154991
  endloop
 endfacet
 facet normal 0.583175 0.352451 0.731905
  outer loop
   vertex 0.332263 0.057723 -0.188241
   vertex 0.35006 0.112753 -0.228922
   vertex 0.313854 0.103613 -0.195672
  endloop
 endfacet
 facet normal 0.583175 0.352451 0.731905
  outer loop
   vertex 0.313854 0.103613 -0.195672
   vertex 0.277648 0.0944735 -0.162422
   vertex 0.296056 0.0485832 -0.154991
  endloop
 endfacet
 facet normal 0.583175 0.352451 0.731905
  outer loop
   vertex 0.332263 0.057723 -0.188241
   vertex 0.313854 0.103613 -0.195672
   vertex 0.296056 0.0485832 -0.154991
  endloop
 endfacet
 facet normal 0.583175 0.352451 0.731905
  outer loop
   vertex 0.277648 0.0944735 -0.162422
   vertex 0.241442 0.0853337 -0.129172
   vertex 0.25985 0.0394434 -0.121741
  endloop
 endfacet
 facet normal 0.583175 0.352451 0.731905
  outer loop
   vertex 0.241442 0.0853337 -0.129172
   vertex 0.205235 0.0761939 -0.095922
   vertex 0.223644 0.0303037 -0.0884912
  endloop
 endfacet
 facet normal 0.583175 0.352451 0.731905
  outer loop
   vertex 0.223644 0.0303037 -0.0884912
   vertex 0.242052 -0.0155866 -0.0810603
   vertex 0.25985 0.0394434 -0.121741
  endloop
 endfacet
 facet normal 0.583175 0.352451 0.731905
  outer loop
   vertex 0.241442 0.0853337 -0.129172
   vertex 0.223644 0.0303037 -0.0884912
   vertex 0.25985 0.0394434 -0.121741
  endloop
 endfacet
 facet normal 0.583175 0.352451 0.731905
  outer loop
   vertex 0.314465 0.00269294 -0.14756
   vertex 0.296056 0.0485832 -0.154991
   vertex 0.278259 -0.00644684 -0.11431
  endloop
 endfacet
 facet normal 0.583175 0.352451 0.731905
  outer loop
   vertex 0.296056 0.0485832 -0.154991
   vertex 0.277648 0.0944735 -0.162422
   vertex 0.25985 0.0394434 -0.121741
  endloop
 endfacet
 facet normal 0.583175 0.352451 0.731905
  outer loop
   vertex 0.25985 0.0394434 -0.121741
   vertex 0.242052 -0.0155866 -0.0810603
   vertex 0.278259 -0.00644684 -0.11431
  endloop
 endfacet
 facet normal 0.583175 0.352451 0.731905
  outer loop
   vertex 0.296056 0.0485832 -0.154991
   vertex 0.25985 0.0394434 -0.121741
   vertex 0.278259 -0.00644684 -0.11431
  endloop
 endfacet
 facet normal 0.583175 0.352451 0.731905
  outer loop
   vertex 0.134044 -0.143926 0.0668017
   vertex 0.170251 -0.134786 0.0335516
   vertex 0.151842 -0.0888962 0.0261208
  endloop
 endfacet
 facet normal 0.583175 0.352451 0.731905
  outer loop
   vertex 0.170251 -0.134786 0.0335516
   vertex 0.206457 -0.125647 0.000301532
   vertex 0.188048 -0.0797564 -0.00712932
  endloop
 endfacet
 facet normal 0.583175 0.352451 0.731905
  outer loop
   vertex 0.188048 -0.0797564 -0.00712932
   vertex 0.16964 -0.0338662 -0.0145602
   vertex 0.151842 -0.0888962 0.0261208
  endloop
 endfacet
 facet normal 0.583175 0.352451 0.731905
  outer loop
   vertex 0.170251 -0.134786 0.0335516
   vertex 0.188048 -0.0797564 -0.00712932
   vertex 0.151842 -0.0888962 0.0261208
  endloop
 endfacet
 facet normal 0.583175 0.352451 0.731905
  outer loop
   vertex 0.206457 -0.125647 0.000301532
   vertex 0.242663 -0.116507 -0.0329485
   vertex 0.224255 -0.0706167 -0.0403794
  endloop
 endfacet
 facet normal 0.583175 0.352451 0.731905
  outer loop
   vertex 0.242663 -0.116507 -0.0329485
   vertex 0.278869 -0.107367 -0.0661986
   vertex 0.260461 -0.0614769 -0.0736295
  endloop
 endfacet
 facet normal 0.583175 0.352451 0.731906
  outer loop
   vertex 0.260461 -0.0614769 -0.0736295
   vertex 0.242052 -0.0155866 -0.0810603
   vertex 0.224255 -0.0706167 -0.0403794
  endloop
 endfacet
 facet normal 0.583175 0.352451 0.731906
  outer loop
   vertex 0.242663 -0.116507 -0.0329485
   vertex 0.260461 -0.0614769 -0.0736295
   vertex 0.224255 -0.0706167 -0.0403794
  endloop
 endfacet
 facet normal 0.583175 0.352451 0.731905
  outer loop
   vertex 0.242052 -0.0155866 -0.0810603
   vertex 0.223644 0.0303037 -0.0884912
   vertex 0.205846 -0.0247264 -0.0478102
  endloop
 endfacet
 facet normal 0.583175 0.352451 0.731905
  outer loop
   vertex 0.223644 0.0303037 -0.0884912
   vertex 0.205235 0.0761939 -0.095922
   vertex 0.187438 0.0211639 -0.0552411
  endloop
 endfacet
 facet normal 0.583175 0.352451 0.731905
  outer loop
   vertex 0.187438 0.0211639 -0.0552411
   vertex 0.16964 -0.0338662 -0.0145602
   vertex 0.205846 -0.0247264 -0.0478102
  endloop
 endfacet
 facet normal 0.583175 0.352451 0.731905
  outer loop
   vertex 0.223644 0.0303037 -0.0884912
   vertex 0.187438 0.0211639 -0.0552411
   vertex 0.205846 -0.0247264 -0.0478102
  endloop
 endfacet
 facet normal 0.583175 0.352451 0.731905
  outer loop
   vertex 0.206457 -0.125647 0.000301532
   vertex 0.224255 -0.0706167 -0.0403794
   vertex 0.188048 -0.0797564 -0.00712932
  endloop
 endfacet
 facet normal 0.583175 0.352451 0.731905
  outer loop
   vertex 0.224255 -0.0706167 -0.0403794
   vertex 0.242052 -0.0155866 -0.0810603
   vertex 0.205846 -0.0247264 -0.0478102
  endloop
 endfacet
 facet normal 0.583175 0.352451 0.731905
  outer loop
   vertex 0.205846 -0.0247264 -0.0478102
   vertex 0.16964 -0.0338662 -0.0145602
   vertex 0.188048 -0.0797564 -0.00712932
  endloop
 endfacet
 facet normal 0.583175 0.352451 0.731905
  outer loop
   vertex 0.224255 -0.0706167 -0.0403794
   vertex 0.205846 -0.0247264 -0.0478102
   vertex 0.188048 -0.0797564 -0.00712932
  endloop
 endfacet
 facet normal 0.583176 0.352447 0.731906
  outer loop
   vertex 0.0604102 0.0396348 0.0370783
   vertex 0.0966164 0.0487746 0.00382821
   vertex 0.0420018 0.0855251 0.0296476
  endloop
 endfacet
 facet normal 0.583176 0.352447 0.731906
  outer loop
   vertex 0.0966164 0.0487746 0.00382821
   vertex 0.132823 0.0579144 -0.0294219
   vertex 0.0782081 0.0946648 -0.00360247
  endloop
 endfacet
 facet normal 0.583176 0.352447 0.731906
  outer loop
   vertex 0.0782081 0.0946648 -0.00360247
   vertex 0.0235935 0.131415 0.0222169
   vertex 0.0420018 0.0855251 0.0296476
  endloop
 endfacet
 facet normal 0.583176 0.352447 0.731906
  outer loop
   vertex 0.0966164 0.0487746 0.00382821
   vertex 0.0782081 0.0946648 -0.00360247
   vertex 0.0420018 0.0855251 0.0296476
  endloop
 endfacet
 facet normal 0.583176 0.352447 0.731906
  outer loop
   vertex 0.132823 0.0579144 -0.0294219
   vertex 0.169029 0.0670542 -0.0626719
   vertex 0.114414 0.103805 -0.0368525
  endloop
 endfacet
 facet normal 0.583176 0.352447 0.731906
  outer loop
   vertex 0.169029 0.0670542 -0.0626719
   vertex 0.205235 0.0761939 -0.095922
   vertex 0.150621 0.112944 -0.0701026
  endloop
 endfacet
 facet normal 0.583176 0.352447 0.731906
  outer loop
   vertex 0.150621 0.112944 -0.0701026
   vertex 0.096006 0.149695 -0.0442832
   vertex 0.114414 0.103805 -0.0368525
  endloop
 endfacet
 facet normal 0.583176 0.352447 0.731906
  outer loop
   vertex 0.169029 0.0670542 -0.0626719
   vertex 0.150621 0.112944 -0.0701026
   vertex 0.114414 0.103805 -0.0368525
  endloop
 endfacet
 facet normal 0.583176 0.352447 0.731906
  outer loop
   vertex 0.096006 0.149695 -0.0442832
   vertex 0.0413914 0.186445 -0.0184638
   vertex 0.0597997 0.140555 -0.0110331
  endloop
 endfacet
 facet normal 0.583176 0.352447 0.731906
  outer loop
   vertex 0.0413914 0.186445 -0.0184638
   vertex -0.0132232 0.223196 0.00735558
   vertex 0.00518512 0.177306 0.0147863
  endloop
 endfacet
 facet normal 0.583176 0.352447 0.731906
  outer loop
   vertex 0.00518512 0.177306 0.0147863
   vertex 0.0235935 0.131415 0.0222169
   vertex 0.0597997 0.140555 -0.0110331
  endloop
 endfacet
 facet normal 0.583176 0.352447 0.731906
  outer loop
   vertex 0.0413914 0.186445 -0.0184638
   vertex 0.00518512 0.177306 0.0147863
   vertex 0.0597997 0.140555 -0.0110331
  endloop
 endfacet
 facet normal 0.583176 0.352447 0.731906
  outer loop
   vertex 0.132823 0.0579144 -0.0294219
   vertex 0.114414 0.103805 -0.0368525
   vertex 0.0782081 0.0946648 -0.00360247
  endloop
 endfacet
 facet normal 0.583176 0.352447 0.731906
  outer loop
   vertex 0.114414 0.103805 -0.0368525
   vertex 0.096006 0.149695 -0.0442832
   vertex 0.0597997 0.140555 -0.0110331
  endloop
 endfacet
 facet normal 0.583176 0.352447 0.731906
  outer loop
   vertex 0.0597997 0.140555 -0.0110331
   vertex 0.0235935 0.131415 0.0222169
   vertex 0.0782081 0.0946648 -0.00360247
  endloop
 endfacet
 facet normal 0.583176 0.352447 0.731906
  outer loop
   vertex 0.114414 0.103805 -0.0368525
   vertex 0.0597997 0.140555 -0.0110331
   vertex 0.0782081 0.0946648 -0.00360247
  endloop
 endfacet
 facet normal 0.583177 0.352447 0.731906
  outer loop
   vertex 0.205235 0.0761939 -0.095922
   vertex 0.241442 0.0853337 -0.129172
   vertex 0.186827 0.122084 -0.103353
  endloop
 endfacet
 facet normal 0.583176 0.352447 0.731906
  outer loop
   vertex 0.241442 0.0853337 -0.129172
   vertex 0.277648 0.0944735 -0.162422
   vertex 0.223033 0.131224 -0.136603
  endloop
 endfacet
 facet normal 0.583176 0.352447 0.731906
  outer loop
   vertex 0.223033 0.131224 -0.136603
   vertex 0.168419 0.167974 -0.110783
   vertex 0.186827 0.122084 -0.103353
  endloop
 endfacet
 facet normal 0.583177 0.352447 0.731906
  outer loop
   vertex 0.241442 0.0853337 -0.129172
   vertex 0.223033 0.131224 -0.136603
   vertex 0.186827 0.122084 -0.103353
  endloop
 endfacet
 facet normal 0.583176 0.352447 0.731906
  outer loop
   vertex 0.277648 0.0944735 -0.162422
   vertex 0.313854 0.103613 -0.195672
   vertex 0.259239 0.140364 -0.169853
  endloop
 endfacet
 facet normal 0.583177 0.352447 0.731906
  outer loop
   vertex 0.313854 0.103613 -0.195672
   vertex 0.35006 0.112753 -0.228922
   vertex 0.295446 0.149503 -0.203103
  endloop
 endfacet
 facet normal 0.583176 0.352447 0.731906
  outer loop
   vertex 0.295446 0.149503 -0.203103
   vertex 0.240831 0.186254 -0.177284
   vertex 0.259239 0.140364 -0.169853
  endloop
 endfacet
 facet normal 0.583176 0.352447 0.731906
  outer loop
   vertex 0.313854 0.103613 -0.195672
   vertex 0.295446 0.149503 -0.203103
   vertex 0.259239 0.140364 -0.169853
  endloop
 endfacet
 facet normal 0.583176 0.352447 0.731906
  outer loop
   vertex 0.240831 0.186254 -0.177284
   vertex 0.186216 0.223004 -0.151464
   vertex 0.204625 0.177114 -0.144033
  endloop
 endfacet
 facet normal 0.583176 0.352447 0.731906
  outer loop
   vertex 0.186216 0.223004 -0.151464
   vertex 0.131602 0.259755 -0.125645
   vertex 0.15001 0.213865 -0.118214
  endloop
 endfacet
 facet normal 0.583176 0.352447 0.731906
  outer loop
   vertex 0.15001 0.213865 -0.118214
   vertex 0.168419 0.167974 -0.110783
   vertex 0.204625 0.177114 -0.144033
  endloop
 endfacet
 facet normal 0.583176 0.352447 0.731906
  outer loop
   vertex 0.186216 0.223004 -0.151464
   vertex 0.15001 0.213865 -0.118214
   vertex 0.204625 0.177114 -0.144033
  endloop
 endfacet
 facet normal 0.583177 0.352447 0.731906
  outer loop
   vertex 0.277648 0.0944735 -0.162422
   vertex 0.259239 0.140364 -0.169853
   vertex 0.223033 0.131224 -0.136603
  endloop
 endfacet
 facet normal 0.583177 0.352447 0.731906
  outer loop
   vertex 0.259239 0.140364 -0.169853
   vertex 0.240831 0.186254 -0.177284
   vertex 0.204625 0.177114 -0.144033
  endloop
 endfacet
 facet normal 0.583176 0.352447 0.731906
  outer loop
   vertex 0.204625 0.177114 -0.144033
   vertex 0.168419 0.167974 -0.110783
   vertex 0.223033 0.131224 -0.136603
  endloop
 endfacet
 facet normal 0.583177 0.352447 0.731906
  outer loop
   vertex 0.259239 0.140364 -0.169853
   vertex 0.204625 0.177114 -0.144033
   vertex 0.223033 0.131224 -0.136603
  endloop
 endfacet
 facet normal 0.583176 0.352447 0.731906
  outer loop
   vertex 0.131602 0.259755 -0.125645
   vertex 0.0769872 0.296505 -0.0998253
   vertex 0.0953956 0.250615 -0.0923946
  endloop
 endfacet
 facet normal 0.583176 0.352447 0.731906
  outer loop
   vertex 0.0769872 0.296505 -0.0998253
   vertex 0.0223726 0.333256 -0.0740059
   vertex 0.040781 0.287365 -0.0665753
  endloop
 endfacet
 facet normal 0.583176 0.352447 0.731906
  outer loop
   vertex 0.040781 0.287365 -0.0665753
   vertex 0.0591893 0.241475 -0.0591446
   vertex 0.0953956 0.250615 -0.0923946
  endloop
 endfacet
 facet normal 0.583176 0.352447 0.731906
  outer loop
   vertex 0.0769872 0.296505 -0.0998253
   vertex 0.040781 0.287365 -0.0665753
   vertex 0.0953956 0.250615 -0.0923946
  endloop
 endfacet
 facet normal 0.583176 0.352447 0.731906
  outer loop
   vertex 0.0223726 0.333256 -0.0740059
   vertex -0.032242 0.370006 -0.0481865
   vertex -0.0138337 0.324116 -0.0407559
  endloop
 endfacet
 facet normal 0.583176 0.352447 0.731906
  outer loop
   vertex -0.032242 0.370006 -0.0481865
   vertex -0.0868566 0.406757 -0.0223671
   vertex -0.0684483 0.360866 -0.0149365
  endloop
 endfacet
 facet normal 0.583176 0.352447 0.731906
  outer loop
   vertex -0.0684483 0.360866 -0.0149365
   vertex -0.0500399 0.314976 -0.00750577
   vertex -0.0138337 0.324116 -0.0407559
  endloop
 endfacet
 facet normal 0.583176 0.352447 0.731906
  outer loop
   vertex -0.032242 0.370006 -0.0481865
   vertex -0.0684483 0.360866 -0.0149365
   vertex -0.0138337 0.324116 -0.0407559
  endloop
 endfacet
 facet normal 0.583177 0.352447 0.731906
  outer loop
   vertex -0.0500399 0.314976 -0.00750577
   vertex -0.0316316 0.269086 -7.50981e-05
   vertex 0.00457469 0.278226 -0.0333252
  endloop
 endfacet
 facet normal 0.583176 0.352447 0.731906
  outer loop
   vertex -0.0316316 0.269086 -7.50981e-05
   vertex -0.0132232 0.223196 0.00735558
   vertex 0.022983 0.232336 -0.0258945
  endloop
 endfacet
 facet normal 0.583176 0.352447 0.731906
  outer loop
   vertex 0.022983 0.232336 -0.0258945
   vertex 0.0591893 0.241475 -0.0591446
   vertex 0.00457469 0.278226 -0.0333252
  endloop
 endfacet
 facet normal 0.583177 0.352447 0.731906
  outer loop
   vertex -0.0316316 0.269086 -7.50981e-05
   vertex 0.022983 0.232336 -0.0258945
   vertex 0.00457469 0.278226 -0.0333252
  endloop
 endfacet
 facet normal 0.583176 0.352447 0.731906
  outer loop
   vertex 0.0223726 0.333256 -0.0740059
   vertex -0.0138337 0.324116 -0.0407559
   vertex 0.040781 0.287365 -0.0665753
  endloop
 endfacet
 facet normal 0.583176 0.352447 0.731906
  outer loop
   vertex -0.0138337 0.324116 -0.0407559
   vertex -0.0500399 0.314976 -0.00750577
   vertex 0.00457469 0.278226 -0.0333252
  endloop
 endfacet
 facet normal 0.583176 0.352447 0.731906
  outer loop
   vertex 0.00457469 0.278226 -0.0333252
   vertex 0.0591893 0.241475 -0.0591446
   vertex 0.040781 0.287365 -0.0665753
  endloop
 endfacet
 facet normal 0.583176 0.352447 0.731906
  outer loop
   vertex -0.0138337 0.324116 -0.0407559
   vertex 0.00457469 0.278226 -0.0333252
   vertex 0.040781 0.287365 -0.0665753
  endloop
 endfacet
 facet normal 0.583176 0.352447 0.731906
  outer loop
   vertex 0.205235 0.0761939 -0.095922
   vertex 0.186827 0.122084 -0.103353
   vertex 0.150621 0.112944 -0.0701026
  endloop
 endfacet
 facet normal 0.583176 0.352447 0.731906
  outer loop
   vertex 0.186827 0.122084 -0.103353
   vertex 0.168419 0.167974 -0.110783
   vertex 0.132212 0.158835 -0.0775333
  endloop
 endfacet
 facet normal 0.583176 0.352447 0.731906
  outer loop
   vertex 0.132212 0.158835 -0.0775333
   vertex 0.096006 0.149695 -0.0442832
   vertex 0.150621 0.112944 -0.0701026
  endloop
 endfacet
 facet normal 0.583176 0.352447 0.731906
  outer loop
   vertex 0.186827 0.122084 -0.103353
   vertex 0.132212 0.158835 -0.0775333
   vertex 0.150621 0.112944 -0.0701026
  endloop
 endfacet
 facet normal 0.583176 0.352447 0.731906
  outer loop
   vertex 0.168419 0.167974 -0.110783
   vertex 0.15001 0.213865 -0.118214
   vertex 0.113804 0.204725 -0.084964
  endloop
 endfacet
 facet normal 0.583176 0.352447 0.731906
  outer loop
   vertex 0.15001 0.213865 -0.118214
   vertex 0.131602 0.259755 -0.125645
   vertex 0.0953956 0.250615 -0.0923946
  endloop
 endfacet
 facet normal 0.583176 0.352447 0.731906
  outer loop
   vertex 0.0953956 0.250615 -0.0923946
   vertex 0.0591893 0.241475 -0.0591446
   vertex 0.113804 0.204725 -0.084964
  endloop
 endfacet
 facet normal 0.583177 0.352447 0.731906
  outer loop
   vertex 0.15001 0.213865 -0.118214
   vertex 0.0953956 0.250615 -0.0923946
   vertex 0.113804 0.204725 -0.084964
  endloop
 endfacet
 facet normal 0.583176 0.352447 0.731906
  outer loop
   vertex 0.0591893 0.241475 -0.0591446
   vertex 0.022983 0.232336 -0.0258945
   vertex 0.0775977 0.195585 -0.0517139
  endloop
 endfacet
 facet normal 0.583176 0.352447 0.731906
  outer loop
   vertex 0.022983 0.232336 -0.0258945
   vertex -0.0132232 0.223196 0.00735558
   vertex 0.0413914 0.186445 -0.0184638
  endloop
 endfacet
 facet normal 0.583176 0.352447 0.731906
  outer loop
   vertex 0.0413914 0.186445 -0.0184638
   vertex 0.096006 0.149695 -0.0442832
   vertex 0.0775977 0.195585 -0.0517139
  endloop
 endfacet
 facet normal 0.583176 0.352447 0.731906
  outer loop
   vertex 0.022983 0.232336 -0.0258945
   vertex 0.0413914 0.186445 -0.0184638
   vertex 0.0775977 0.195585 -0.0517139
  endloop
 endfacet
 facet normal 0.583176 0.352447 0.731906
  outer loop
   vertex 0.168419 0.167974 -0.110783
   vertex 0.113804 0.204725 -0.084964
   vertex 0.132212 0.158835 -0.0775333
  endloop
 endfacet
 facet normal 0.583176 0.352447 0.731906
  outer loop
   vertex 0.113804 0.204725 -0.084964
   vertex 0.0591893 0.241475 -0.0591446
   vertex 0.0775977 0.195585 -0.0517139
  endloop
 endfacet
 facet normal 0.583177 0.352447 0.731906
  outer loop
   vertex 0.0775977 0.195585 -0.0517139
   vertex 0.096006 0.149695 -0.0442832
   vertex 0.132212 0.158835 -0.0775333
  endloop
 endfacet
 facet normal 0.583176 0.352447 0.731906
  outer loop
   vertex 0.113804 0.204725 -0.084964
   vertex 0.0775977 0.195585 -0.0517139
   vertex 0.132212 0.158835 -0.0775333
  endloop
 endfacet
endsolid
