solid ascii
 facet normal -0.860751 0.14041 -0.489278
  outer loop
   vertex 0.0400786 0.0329331 0.0114606
   vertex 0.0147195 0.0251917 0.0538515
   vertex 0.0168839 0.0740874 0.0640755
  endloop
 endfacet
 facet normal -0.860751 0.14041 -0.489278
  outer loop
   vertex 0.0400786 0.0329331 0.0114606
   vertex 0.0168839 0.0740874 0.0640755
   vertex 0.042243 0.0818288 0.0216847
  endloop
 endfacet
 facet normal 0.860751 -0.14041 0.489278
  outer loop
   vertex 0.0831161 0.0259126 0.0359245
   vertex 0.0852806 0.0748083 0.0461485
   vertex 0.0599214 0.0670669 0.0885394
  endloop
 endfacet
 facet normal 0.860751 -0.14041 0.489278
  outer loop
   vertex 0.0831161 0.0259126 0.0359245
   vertex 0.0599214 0.0670669 0.0885394
   vertex 0.057757 0.0181712 0.0783153
  endloop
 endfacet
 facet normal -0.0432885 -0.977913 -0.204482
  outer loop
   vertex 0.0400786 0.0329331 0.0114606
   vertex 0.0831161 0.0259126 0.0359245
   vertex 0.057757 0.0181712 0.0783153
  endloop
 endfacet
 facet normal -0.0432886 -0.977913 -0.204482
  outer loop
   vertex 0.0400786 0.0329331 0.0114606
   vertex 0.057757 0.0181712 0.0783153
   vertex 0.0147195 0.0251917 0.0538515
  endloop
 endfacet
 facet normal 0.0432886 0.977913 0.204482
  outer loop
   vertex 0.042243 0.0818288 0.0216847
   vertex 0.0168839 0.0740874 0.0640755
   vertex 0.0599214 0.0670669 0.0885394
  endloop
 endfacet
 facet normal 0.0432886 0.977913 0.204482
  outer loop
   vertex 0.042243 0.0818288 0.0216847
   vertex 0.0599214 0.0670669 0.0885394
   vertex 0.0852806 0.0748083 0.0461485
  endloop
 endfacet
 facet normal 0.507182 0.154828 -0.847818
  outer loop
   vertex 0.0400786 0.0329331 0.0114606
   vertex 0.042243 0.0818288 0.0216847
   vertex 0.0852806 0.0748083 0.0461485
  endloop
 endfacet
 facet normal 0.507182 0.154828 -0.847818
  outer loop
   vertex 0.0400786 0.0329331 0.0114606
   vertex 0.0852806 0.0748083 0.0461485
   vertex 0.0831161 0.0259126 0.0359245
  endloop
 endfacet
 facet normal -0.507182 -0.154828 0.847818
  outer loop
   vertex 0.0147195 0.0251917 0.0538515
   vertex 0.057757 0.0181712 0.0783153
   vertex 0.0599214 0.0670669 0.0885394
  endloop
 endfacet
 facet normal -0.507182 -0.154828 0.847818
  outer loop
   vertex 0.0147195 0.0251917 0.0538515
   vertex 0.0599214 0.0670669 0.0885394
   vertex 0.0168839 0.0740874 0.0640755
  endloop
 endfacet
endsolid
