solid ascii
 facet normal 0.357407 0.357407 0.862856
  outer loop
   vertex 0.0712132 0.05 0.0712132
   vertex 0.05 0.0712132 0.0712132
   vertex 0.05 0.05 0.08
  endloop
 endfacet
 facet normal -0.357407 0.357407 0.862856
  outer loop
   vertex 0.05 0.0712132 0.0712132
   vertex 0.0287868 0.05 0.0712132
   vertex 0.05 0.05 0.08
  endloop
 endfacet
 facet normal -0.357407 -0.357407 0.862856
  outer loop
   vertex 0.0287868 0.05 0.0712132
   vertex 0.05 0.0287868 0.0712132
   vertex 0.05 0.05 0.08
  endloop
 endfacet
 facet normal 0.357407 -0.357407 0.862856
  outer loop
   vertex 0.05 0.0287868 0.0712132
   vertex 0.0712132 0.05 0.0712132
   vertex 0.05 0.05 0.08
  endloop
 endfacet
 facet normal 0.357407 0.357407 -0.862856
  outer loop
   vertex 0.0712132 0.05 0.0287868
   vertex 0.05 0.05 0.02
   vertex 0.05 0.0712132 0.0287868
  endloop
 endfacet
 facet normal -0.357407 0.357407 -0.862856
  outer loop
   vertex 0.05 0.0712132 0.0287868
   vertex 0.05 0.05 0.02
   vertex 0.0287868 0.05 0.0287868
  endloop
 endfacet
 facet normal -0.357407 -0.357407 -0.862856
  outer loop
   vertex 0.0287868 0.05 0.0287868
   vertex 0.05 0.05 0.02
   vertex 0.05 0.0287868 0.0287868
  endloop
 endfacet
 facet normal 0.357407 -0.357407 -0.862856
  outer loop
   vertex 0.05 0.0287868 0.0287868
   vertex 0.05 0.05 0.02
   vertex 0.0712132 0.05 0.0287868
  endloop
 endfacet
 facet normal 0.678598 0.678598 0.281085
  outer loop
   vertex 0.0712132 0.05 0.0712132
   vertex 0.08 0.05 0.05
   vertex 0.05 0.08 0.05
  endloop
 endfacet
 facet normal 0.678598 0.678598 0.281085
  outer loop
   vertex 0.0712132 0.05 0.0712132
   vertex 0.05 0.08 0.05
   vertex 0.05 0.0712132 0.0712132
  endloop
 endfacet
 facet normal 0.678598 0.678598 -0.281085
  outer loop
   vertex 0.08 0.05 0.05
   vertex 0.0712132 0.05 0.0287868
   vertex 0.05 0.0712132 0.0287868
  endloop
 endfacet
 facet normal 0.678598 0.678598 -0.281085
  outer loop
   vertex 0.08 0.05 0.05
   vertex 0.05 0.0712132 0.0287868
   vertex 0.05 0.08 0.05
  endloop
 endfacet
 facet normal -0.678598 0.678598 0.281085
  outer loop
   vertex 0.05 0.0712132 0.0712132
   vertex 0.05 0.08 0.05
   vertex 0.02 0.05 0.05
  endloop
 endfacet
 facet normal -0.678598 0.678598 0.281085
  outer loop
   vertex 0.05 0.0712132 0.0712132
   vertex 0.02 0.05 0.05
   vertex 0.0287868 0.05 0.0712132
  endloop
 endfacet
 facet normal -0.678598 0.678598 -0.281085
  outer loop
   vertex 0.05 0.08 0.05
   vertex 0.05 0.0712132 0.0287868
   vertex 0.0287868 0.05 0.0287868
  endloop
 endfacet
 facet normal -0.678598 0.678598 -0.281085
  outer loop
   vertex 0.05 0.08 0.05
   vertex 0.0287868 0.05 0.0287868
   vertex 0.02 0.05 0.05
  endloop
 endfacet
 facet normal -0.678598 -0.678598 0.281085
  outer loop
   vertex 0.0287868 0.05 0.0712132
   vertex 0.02 0.05 0.05
   vertex 0.05 0.02 0.05
  endloop
 endfacet
 facet normal -0.678598 -0.678598 0.281085
  outer loop
   vertex 0.0287868 0.05 0.0712132
   vertex 0.05 0.02 0.05
   vertex 0.05 0.0287868 0.0712132
  endloop
 endfacet
 facet normal -0.678598 -0.678598 -0.281085
  outer loop
   vertex 0.02 0.05 0.05
   vertex 0.0287868 0.05 0.0287868
   vertex 0.05 0.0287868 0.0287868
  endloop
 endfacet
 facet normal -0.678598 -0.678598 -0.281085
  outer loop
   vertex 0.02 0.05 0.05
   vertex 0.05 0.0287868 0.0287868
   vertex 0.05 0.02 0.05
  endloop
 endfacet
 facet normal 0.678598 -0.678598 0.281085
  outer loop
   vertex 0.05 0.0287868 0.0712132
   vertex 0.05 0.02 0.05
   vertex 0.08 0.05 0.05
  endloop
 endfacet
 facet normal 0.678598 -0.678598 0.281085
  outer loop
   vertex 0.05 0.0287868 0.0712132
   vertex 0.08 0.05 0.05
   vertex 0.0712132 0.05 0.0712132
  endloop
 endfacet
 facet normal 0.678598 -0.678598 -0.281085
  outer loop
   vertex 0.05 0.02 0.05
   vertex 0.05 0.0287868 0.0287868
   vertex 0.0712132 0.05 0.0287868
  endloop
 endfacet
 facet normal 0.678598 -0.678598 -0.281085
  outer loop
   vertex 0.05 0.02 0.05
   vertex 0.0712132 0.05 0.0287868
   vertex 0.08 0.05 0.05
  endloop
 endfacet
endsolid
