solid ascii
 facet normal 0 0 1
  outer loop
   vertex 0.05 0.05 0.05
   vertex 0.0853553 0.0853553 0.05
   vertex 0.0146447 0.0853553 0.05
  endloop
 endfacet
 facet normal 0 -0 1
  outer loop
   vertex -0.0207107 0.120711 0.05
   vertex 0.0146447 0.0853553 0.05
   vertex 0.120711 0.120711 0.05
  endloop
 endfacet
 facet normal 0 0 1
  outer loop
   vertex 0.0853553 0.0853553 0.05
   vertex 0.120711 0.120711 0.05
   vertex 0.0146447 0.0853553 0.05
  endloop
 endfacet
 facet normal 0 -0 1
  outer loop
   vertex -0.056066 0.156066 0.05
   vertex -0.0207107 0.120711 0.05
   vertex 0.156066 0.156066 0.05
  endloop
 endfacet
 facet normal 0 0 1
  outer loop
   vertex 0.120711 0.120711 0.05
   vertex 0.156066 0.156066 0.05
   vertex -0.0207107 0.120711 0.05
  endloop
 endfacet
 facet normal -0 0 1
  outer loop
   vertex 0.191421 0.191421 0.05
   vertex -0.0914214 0.191421 0.05
   vertex 0.156066 0.156066 0.05
  endloop
 endfacet
 facet normal 0 0 1
  outer loop
   vertex -0.056066 0.156066 0.05
   vertex 0.156066 0.156066 0.05
   vertex -0.0914214 0.191421 0.05
  endloop
 endfacet
 facet normal 0 0 1
  outer loop
   vertex 0.05 0.05 0.05
   vertex 0.0146447 0.0853553 0.05
   vertex 0.0146447 0.0146447 0.05
  endloop
 endfacet
 facet normal 0 0 1
  outer loop
   vertex -0.0207107 -0.0207107 0.05
   vertex 0.0146447 0.0146447 0.05
   vertex -0.0207107 0.120711 0.05
  endloop
 endfacet
 facet normal 0 0 1
  outer loop
   vertex 0.0146447 0.0853553 0.05
   vertex -0.0207107 0.120711 0.05
   vertex 0.0146447 0.0146447 0.05
  endloop
 endfacet
 facet normal 0 0 1
  outer loop
   vertex -0.056066 -0.056066 0.05
   vertex -0.0207107 -0.0207107 0.05
   vertex -0.056066 0.156066 0.05
  endloop
 endfacet
 facet normal 0 0 1
  outer loop
   vertex -0.0207107 0.120711 0.05
   vertex -0.056066 0.156066 0.05
   vertex -0.0207107 -0.0207107 0.05
  endloop
 endfacet
 facet normal 0 -0 1
  outer loop
   vertex -0.0914214 0.191421 0.05
   vertex -0.0914213 -0.0914214 0.05
   vertex -0.056066 0.156066 0.05
  endloop
 endfacet
 facet normal 0 0 1
  outer loop
   vertex -0.056066 -0.056066 0.05
   vertex -0.056066 0.156066 0.05
   vertex -0.0914213 -0.0914214 0.05
  endloop
 endfacet
 facet normal 0 0 1
  outer loop
   vertex 0.05 0.05 0.05
   vertex 0.0146447 0.0146447 0.05
   vertex 0.0853553 0.0146447 0.05
  endloop
 endfacet
 facet normal 0 0 1
  outer loop
   vertex -0.0207107 -0.0207107 0.05
   vertex 0.120711 -0.0207107 0.05
   vertex 0.0146447 0.0146447 0.05
  endloop
 endfacet
 facet normal -0 0 1
  outer loop
   vertex 0.0853553 0.0146447 0.05
   vertex 0.0146447 0.0146447 0.05
   vertex 0.120711 -0.0207107 0.05
  endloop
 endfacet
 facet normal 0 0 1
  outer loop
   vertex -0.056066 -0.056066 0.05
   vertex 0.156066 -0.056066 0.05
   vertex -0.0207107 -0.0207107 0.05
  endloop
 endfacet
 facet normal -0 0 1
  outer loop
   vertex 0.120711 -0.0207107 0.05
   vertex -0.0207107 -0.0207107 0.05
   vertex 0.156066 -0.056066 0.05
  endloop
 endfacet
 facet normal 0 0 1
  outer loop
   vertex 0.191421 -0.0914213 0.05
   vertex 0.156066 -0.056066 0.05
   vertex -0.0914213 -0.0914214 0.05
  endloop
 endfacet
 facet normal 0 0 1
  outer loop
   vertex -0.056066 -0.056066 0.05
   vertex -0.0914213 -0.0914214 0.05
   vertex 0.156066 -0.056066 0.05
  endloop
 endfacet
 facet normal 0 -0 1
  outer loop
   vertex 0.05 0.05 0.05
   vertex 0.0853553 0.0146447 0.05
   vertex 0.0853553 0.0853553 0.05
  endloop
 endfacet
 facet normal 0 0 1
  outer loop
   vertex 0.120711 -0.0207107 0.05
   vertex 0.120711 0.120711 0.05
   vertex 0.0853553 0.0146447 0.05
  endloop
 endfacet
 facet normal 0 0 1
  outer loop
   vertex 0.0853553 0.0853553 0.05
   vertex 0.0853553 0.0146447 0.05
   vertex 0.120711 0.120711 0.05
  endloop
 endfacet
 facet normal 0 0 1
  outer loop
   vertex 0.156066 -0.056066 0.05
   vertex 0.156066 0.156066 0.05
   vertex 0.120711 -0.0207107 0.05
  endloop
 endfacet
 facet normal 0 -0 1
  outer loop
   vertex 0.120711 0.120711 0.05
   vertex 0.120711 -0.0207107 0.05
   vertex 0.156066 0.156066 0.05
  endloop
 endfacet
 facet normal -0 0 1
  outer loop
   vertex 0.191421 0.191421 0.05
   vertex 0.156066 0.156066 0.05
   vertex 0.191421 -0.0914213 0.05
  endloop
 endfacet
 facet normal 0 0 1
  outer loop
   vertex 0.156066 -0.056066 0.05
   vertex 0.191421 -0.0914213 0.05
   vertex 0.156066 0.156066 0.05
  endloop
 endfacet
endsolid
