solid ascii
 facet normal 0.583176 0.352447 0.731907
  outer loop
   vertex 0.0450579 0.0315101 0.0941686
   vertex -0.0285755 0.215071 0.0644459
   vertex -0.0997675 -0.0050492 0.227169
  endloop
 endfacet
 facet normal 0.583175 0.352449 0.731906
  outer loop
   vertex 0.0450579 0.0315101 0.0941686
   vertex -0.0997675 -0.0050492 0.227169
   vertex 0.118692 -0.152051 0.123892
  endloop
 endfacet
 facet normal 0.583176 0.352449 0.731905
  outer loop
   vertex 0.0450579 0.0315101 0.0941686
   vertex 0.118692 -0.152051 0.123892
   vertex 0.189883 0.0680692 -0.0388317
  endloop
 endfacet
 facet normal 0.583177 0.352447 0.731906
  outer loop
   vertex 0.0450579 0.0315101 0.0941686
   vertex 0.189883 0.0680692 -0.0388317
   vertex -0.0285755 0.215071 0.0644459
  endloop
 endfacet
endsolid
