solid ascii
 facet normal -1 0 0
  outer loop
   vertex -0.5 6.1531e-11 -0.1
   vertex -0.5 -0.1 -4.10207e-11
   vertex -0.5 -2.05103e-11 0.1
  endloop
 endfacet
 facet normal 0.0705346 0.705346 0.705346
  outer loop
   vertex 0.5 0 0
   vertex -0.5 0.1 0
   vertex -0.5 -2.05103e-11 0.1
  endloop
 endfacet
 facet normal 0.0705346 -0.705346 0.705346
  outer loop
   vertex 0.5 0 0
   vertex -0.5 -2.05103e-11 0.1
   vertex -0.5 -0.1 -4.10207e-11
  endloop
 endfacet
 facet normal 0.0705346 -0.705346 -0.705346
  outer loop
   vertex 0.5 0 0
   vertex -0.5 -0.1 -4.10207e-11
   vertex -0.5 6.1531e-11 -0.1
  endloop
 endfacet
 facet normal 0.0705346 0.705346 -0.705346
  outer loop
   vertex 0.5 0 0
   vertex -0.5 6.1531e-11 -0.1
   vertex -0.5 0.1 0
  endloop
 endfacet
endsolid
